<svg width="12" height="12" viewBox="0 0 12 12" fill="none" xmlns="http://www.w3.org/2000/svg">
<path d="M3.941 1H8.059L8.809 2.5H11.5V10.5H0.5V2.5H3.191L3.941 1ZM4.559 2L3.809 3.5H1.5V9.5H10.5V3.5H8.191L7.441 2H4.559ZM6 4.75C5.80302 4.75 5.60796 4.7888 5.42597 4.86418C5.24399 4.93956 5.07863 5.05005 4.93934 5.18934C4.80005 5.32863 4.68956 5.49399 4.61418 5.67597C4.5388 5.85796 4.5 6.05302 4.5 6.25C4.5 6.44698 4.5388 6.64204 4.61418 6.82402C4.68956 7.00601 4.80005 7.17137 4.93934 7.31066C5.07863 7.44995 5.24399 7.56044 5.42597 7.63582C5.60796 7.7112 5.80302 7.75 6 7.75C6.39782 7.75 6.77936 7.59196 7.06066 7.31066C7.34196 7.02936 7.5 6.64782 7.5 6.25C7.5 5.85217 7.34196 5.47064 7.06066 5.18934C6.77936 4.90803 6.39782 4.75 6 4.75ZM3.5 6.25C3.5 5.58696 3.76339 4.95107 4.23223 4.48223C4.70107 4.01339 5.33696 3.75 6 3.75C6.66304 3.75 7.29893 4.01339 7.76777 4.48223C8.23661 4.95107 8.5 5.58696 8.5 6.25C8.5 6.91304 8.23661 7.54893 7.76777 8.01777C7.29893 8.48661 6.66304 8.75 6 8.75C5.33696 8.75 4.70107 8.48661 4.23223 8.01777C3.76339 7.54893 3.5 6.91304 3.5 6.25Z" fill="black"/>
</svg>
